<?xml version="1.0" encoding="UTF-8"?>
<svg id="Layer_1" data-name="Layer 1" xmlns="http://www.w3.org/2000/svg" viewBox="0 0 579 111.72">
  <defs>
    <style>
      .cls-1 {
        fill: #fff;
      }
    </style>
  </defs>
  <path class="cls-1" d="M92.61,0l-31.49,31.94,66.75,66.31,31.53-31.41L92.61,0ZM499.43,9.87c-8.88,1.84-8.64,16.08.51,17.53,15.27,2.41,14.84-20.72-.51-17.53ZM252.55,13.39h-14.96l-2.14,92.22h12.52l1.53-65.97,24.41,66.01,13.09-.1,23.26-65.9,1.23,65.96h12.83l-2.44-92.22h-14.96l-26.87,75.13-27.48-75.13ZM206.44,15.84h-42.75v95.89h42.75V15.84ZM470.28,17.06h-13.44v21.38h-9.77v11.6h9.77v40.62c0,1.2,1.77,6.6,2.54,7.84,5.53,8.93,15.99,7.34,24.94,7.12v-13.44c-4.81.7-11.35,2.38-13.15-3.64-.15-.5-.89-4.34-.89-4.6v-33.9h13.44v-11.6h-13.44v-21.38ZM393.33,105.62v-45.5c0-8.22-6.44-17.22-14.06-20.15-16.79-6.46-41.44-.3-40.91,21.06h12.83c2.7-19.31,32.01-15.13,28.71,4.89-13.43-.43-41.55-.53-43.93,17.46-3.39,25.7,32.02,31.11,44.53,13.08.22,1.49-.65,9.16.92,9.16h11.91ZM442.8,37.82c-7.23-.28-13.9,1.64-18.64,7.32-1.5,1.8-2.22,4.06-3.96,5.5v-12.22h-12.83v67.18h13.44v-36.34c0-.65,1.08-5,1.39-5.94,2.88-8.74,12.02-12,20.6-11.47v-14.05ZM579,105.62v-47.94c0-.59-2-6.94-2.43-7.96-5.62-13.48-25.62-15.59-36.06-6.71-2.32,1.97-3.4,4.39-5.49,6.42v-10.99h-12.83v67.18h13.13c.06,0,.92-.85.92-.92v-40.92c0-2.77,3.83-9.14,6.09-11.01,6.36-5.24,18.32-4.34,21.69,3.99.41,1,1.53,5,1.53,5.8v43.06h13.44ZM508.76,38.43h-14.05v67.18h14.05V38.43ZM92.84,68.97H0v42.75h92.84v-42.75Z"/>
  <polygon class="cls-1" points="252.55 13.39 280.03 88.52 306.91 13.39 321.87 13.39 324.31 105.62 311.49 105.62 310.26 39.66 287 105.55 273.9 105.66 249.5 39.65 247.97 105.62 235.45 105.62 237.59 13.39 252.55 13.39"/>
  <polygon class="cls-1" points="92.61 0 159.4 66.83 127.87 98.24 61.12 31.94 92.61 0"/>
  <rect class="cls-1" x="163.68" y="15.84" width="42.75" height="95.89"/>
  <rect class="cls-1" y="68.97" width="92.84" height="42.75"/>
  <path class="cls-1" d="M393.33,105.62h-11.91c-1.57,0-.7-7.67-.92-9.16-12.51,18.03-47.92,12.62-44.53-13.08,2.37-17.99,30.5-17.88,43.93-17.46,3.3-20.02-26.01-24.2-28.71-4.89h-12.83c-.52-21.36,24.12-27.53,40.91-21.06,7.61,2.93,14.06,11.93,14.06,20.15v45.5ZM379.89,74.47h-10.69c-2.66,0-9.53,1.47-12.13,2.52-10.27,4.13-9.25,17.15.8,19.19,13.96,2.84,24.02-8.07,22.02-21.72Z"/>
  <path class="cls-1" d="M579,105.62h-13.44v-43.06c0-.8-1.12-4.8-1.53-5.8-3.38-8.33-15.33-9.23-21.69-3.99-2.26,1.87-6.09,8.23-6.09,11.01v40.92c0,.06-.85.92-.92.92h-13.13V38.43h12.83v10.99c2.09-2.03,3.17-4.45,5.49-6.42,10.44-8.88,30.44-6.77,36.06,6.71.42,1.01,2.43,7.37,2.43,7.96v47.94Z"/>
  <path class="cls-1" d="M470.28,17.06v21.38h13.44v11.6h-13.44v33.9c0,.26.74,4.1.89,4.6,1.8,6.03,8.35,4.35,13.15,3.64v13.44c-8.96.22-19.41,1.8-24.94-7.12-.77-1.24-2.54-6.64-2.54-7.84v-40.62h-9.77v-11.6h9.77v-21.38h13.44Z"/>
  <path class="cls-1" d="M442.8,37.82v14.05c-8.57-.54-17.71,2.73-20.6,11.47-.31.94-1.39,5.29-1.39,5.94v36.34h-13.44V38.43h12.83v12.22c1.74-1.45,2.46-3.7,3.96-5.5,4.73-5.68,11.4-7.6,18.64-7.32Z"/>
  <rect class="cls-1" x="494.72" y="38.43" width="14.05" height="67.18"/>
  <path class="cls-1" d="M499.43,9.87c15.35-3.19,15.78,19.94.51,17.53-9.15-1.45-9.39-15.68-.51-17.53Z"/>
</svg>